<mxfile host="app.diagrams.net" modified="2024-04-25T18:18:12.953Z" agent="Mozilla/5.0 (Windows NT 10.0; Win64; x64) AppleWebKit/537.36 (KHTML, like Gecko) Chrome/124.0.0.0 Safari/537.36 Edg/124.0.0.0" etag="gXcL74j_3xpZosjrKsZg" version="24.3.0" type="github">
  <diagram id="C5RBs43oDa-KdzZeNtuy" name="Page-1">
    <mxGraphModel dx="2100" dy="1222" grid="1" gridSize="10" guides="1" tooltips="1" connect="1" arrows="1" fold="1" page="1" pageScale="1" pageWidth="827" pageHeight="1169" math="0" shadow="0">
      <root>
        <mxCell id="WIyWlLk6GJQsqaUBKTNV-0" />
        <mxCell id="WIyWlLk6GJQsqaUBKTNV-1" parent="WIyWlLk6GJQsqaUBKTNV-0" />
        <mxCell id="m8jkotJL9bqY7cidW_OS-2" value="" style="edgeStyle=orthogonalEdgeStyle;rounded=0;orthogonalLoop=1;jettySize=auto;html=1;" edge="1" parent="WIyWlLk6GJQsqaUBKTNV-1" source="m8jkotJL9bqY7cidW_OS-0" target="m8jkotJL9bqY7cidW_OS-1">
          <mxGeometry relative="1" as="geometry" />
        </mxCell>
        <mxCell id="m8jkotJL9bqY7cidW_OS-0" value="开始" style="strokeWidth=2;html=1;shape=mxgraph.flowchart.terminator;whiteSpace=wrap;" vertex="1" parent="WIyWlLk6GJQsqaUBKTNV-1">
          <mxGeometry x="390" y="290" width="100" height="60" as="geometry" />
        </mxCell>
        <mxCell id="m8jkotJL9bqY7cidW_OS-6" value="" style="edgeStyle=orthogonalEdgeStyle;rounded=0;orthogonalLoop=1;jettySize=auto;html=1;" edge="1" parent="WIyWlLk6GJQsqaUBKTNV-1" source="m8jkotJL9bqY7cidW_OS-1" target="m8jkotJL9bqY7cidW_OS-5">
          <mxGeometry relative="1" as="geometry" />
        </mxCell>
        <mxCell id="m8jkotJL9bqY7cidW_OS-1" value="设置班级名称" style="rounded=1;whiteSpace=wrap;html=1;strokeWidth=2;" vertex="1" parent="WIyWlLk6GJQsqaUBKTNV-1">
          <mxGeometry x="380" y="430" width="120" height="60" as="geometry" />
        </mxCell>
        <mxCell id="m8jkotJL9bqY7cidW_OS-8" value="" style="edgeStyle=orthogonalEdgeStyle;rounded=0;orthogonalLoop=1;jettySize=auto;html=1;" edge="1" parent="WIyWlLk6GJQsqaUBKTNV-1" source="m8jkotJL9bqY7cidW_OS-5" target="m8jkotJL9bqY7cidW_OS-7">
          <mxGeometry relative="1" as="geometry" />
        </mxCell>
        <mxCell id="m8jkotJL9bqY7cidW_OS-5" value="搜索用户&lt;div&gt;调用API&lt;/div&gt;" style="shape=parallelogram;perimeter=parallelogramPerimeter;whiteSpace=wrap;html=1;fixedSize=1;rounded=1;strokeWidth=2;" vertex="1" parent="WIyWlLk6GJQsqaUBKTNV-1">
          <mxGeometry x="380" y="570" width="120" height="60" as="geometry" />
        </mxCell>
        <mxCell id="m8jkotJL9bqY7cidW_OS-10" value="" style="edgeStyle=orthogonalEdgeStyle;rounded=0;orthogonalLoop=1;jettySize=auto;html=1;" edge="1" parent="WIyWlLk6GJQsqaUBKTNV-1" source="m8jkotJL9bqY7cidW_OS-7" target="m8jkotJL9bqY7cidW_OS-9">
          <mxGeometry relative="1" as="geometry" />
        </mxCell>
        <mxCell id="m8jkotJL9bqY7cidW_OS-7" value="设置管理者" style="rounded=1;whiteSpace=wrap;html=1;strokeWidth=2;" vertex="1" parent="WIyWlLk6GJQsqaUBKTNV-1">
          <mxGeometry x="380" y="710" width="120" height="60" as="geometry" />
        </mxCell>
        <mxCell id="m8jkotJL9bqY7cidW_OS-12" value="" style="edgeStyle=orthogonalEdgeStyle;rounded=0;orthogonalLoop=1;jettySize=auto;html=1;" edge="1" parent="WIyWlLk6GJQsqaUBKTNV-1" source="m8jkotJL9bqY7cidW_OS-9" target="m8jkotJL9bqY7cidW_OS-11">
          <mxGeometry relative="1" as="geometry" />
        </mxCell>
        <mxCell id="m8jkotJL9bqY7cidW_OS-9" value="搜索用户&lt;div&gt;调用API&lt;/div&gt;" style="shape=parallelogram;perimeter=parallelogramPerimeter;whiteSpace=wrap;html=1;fixedSize=1;rounded=1;strokeWidth=2;" vertex="1" parent="WIyWlLk6GJQsqaUBKTNV-1">
          <mxGeometry x="380" y="850" width="120" height="60" as="geometry" />
        </mxCell>
        <mxCell id="m8jkotJL9bqY7cidW_OS-14" value="" style="edgeStyle=orthogonalEdgeStyle;rounded=0;orthogonalLoop=1;jettySize=auto;html=1;" edge="1" parent="WIyWlLk6GJQsqaUBKTNV-1" source="m8jkotJL9bqY7cidW_OS-11" target="m8jkotJL9bqY7cidW_OS-13">
          <mxGeometry relative="1" as="geometry" />
        </mxCell>
        <mxCell id="m8jkotJL9bqY7cidW_OS-11" value="添加班级成员" style="rounded=1;whiteSpace=wrap;html=1;strokeWidth=2;" vertex="1" parent="WIyWlLk6GJQsqaUBKTNV-1">
          <mxGeometry x="380" y="990" width="120" height="60" as="geometry" />
        </mxCell>
        <mxCell id="m8jkotJL9bqY7cidW_OS-16" value="" style="edgeStyle=orthogonalEdgeStyle;rounded=0;orthogonalLoop=1;jettySize=auto;html=1;" edge="1" parent="WIyWlLk6GJQsqaUBKTNV-1" source="m8jkotJL9bqY7cidW_OS-13" target="m8jkotJL9bqY7cidW_OS-15">
          <mxGeometry relative="1" as="geometry" />
        </mxCell>
        <mxCell id="m8jkotJL9bqY7cidW_OS-13" value="提交申请" style="rounded=1;whiteSpace=wrap;html=1;strokeWidth=2;" vertex="1" parent="WIyWlLk6GJQsqaUBKTNV-1">
          <mxGeometry x="380" y="1130" width="120" height="60" as="geometry" />
        </mxCell>
        <mxCell id="m8jkotJL9bqY7cidW_OS-15" value="获取创建结果" style="strokeWidth=2;html=1;shape=mxgraph.flowchart.terminator;whiteSpace=wrap;" vertex="1" parent="WIyWlLk6GJQsqaUBKTNV-1">
          <mxGeometry x="390" y="1270" width="100" height="60" as="geometry" />
        </mxCell>
      </root>
    </mxGraphModel>
  </diagram>
</mxfile>
